<svg id="Capa_1" enable-background="new 0 0 512 512" height="512" viewBox="0 0 512 512" width="512" xmlns="http://www.w3.org/2000/svg"><g><path d="m220.99 147.732 121.418 91.479c9.987 7.525 21.51 12.756 33.749 15.322l106.003 24.222c18.244 8.803 29.84 27.272 29.84 47.529v26.943l-199.823 11.041c-6.718 0-13.404-.932-19.866-2.769l-123.584-35.224v37.993h-168.727c0-130.734 39.605-216.535 39.605-216.535 58.883 16.606 119.424 15.778 181.385-.001z" fill="#b2705b"/><g><path d="m482.16 278.755-106.003-24.222c-12.239-2.566-23.762-7.797-33.749-15.322l-86.408-65.101v177.039l36.311 10.349c6.462 1.837 13.148 2.769 19.866 2.769l199.823-11.04v-26.943c0-20.257-11.595-38.726-29.84-47.529z" fill="#a05f4b"/><path d="m228.939 153.721-49.307 49.307 21.213 21.213 52.29-52.29z" fill="#5a5a5a"/><path d="m299.894 207.18-42.146 42.146 21.213 21.213 45.129-45.129z" fill="#2d2d2d"/></g></g></svg>